<svg id="object" height="512" viewBox="0 0 32 32" width="512" xmlns="http://www.w3.org/2000/svg"><path d="m11.48 12a3.5 3.5 0 1 0 -3.48 3.5 3.5 3.5 0 0 0 3.48-3.5zm-3.48 1.5a1.5 1.5 0 1 1 1.48-1.5 1.5 1.5 0 0 1 -1.48 1.5z"/><path d="m27.48 12a3.5 3.5 0 1 0 -3.48 3.5 3.5 3.5 0 0 0 3.48-3.5zm-3.48 1.5a1.5 1.5 0 1 1 1.5-1.5 1.5 1.5 0 0 1 -1.5 1.5z"/><path d="m30 25h-5v-3.58c1.35-1.32 6-6.12 6-9.42a7 7 0 0 0 -14 0c0 3.3 4.65 8.1 6 9.42v3.58h-14v-3.58c1.35-1.32 6-6.12 6-9.42a7 7 0 0 0 -14 0c0 3.3 4.65 8.1 6 9.42v3.58h-5a1 1 0 0 0 0 2h28a1 1 0 0 0 0-2zm-11-13a5 5 0 0 1 10 0c0 1.89-2.83 5.4-5 7.6-2.17-2.2-5-5.71-5-7.6zm-16 0a5 5 0 0 1 10 0c0 1.89-2.83 5.4-5 7.6-2.17-2.2-5-5.71-5-7.6z"/></svg>