<?xml version="1.0" encoding="utf-8"?>
<!-- Generator: Adobe Illustrator 28.0.0, SVG Export Plug-In . SVG Version: 6.00 Build 0)  -->
<svg version="1.1" id="Layer_1" xmlns="http://www.w3.org/2000/svg" xmlns:xlink="http://www.w3.org/1999/xlink" x="0px" y="0px"
	 viewBox="0 0 512 512" style="enable-background:new 0 0 512 512;" xml:space="preserve">
<style type="text/css">
	.st0{fill-rule:evenodd;clip-rule:evenodd;}
</style>
<path class="st0" d="M306.7,268.3v156h109.9l-34.8-34.8l17.4-17.4L455,428c2.4,2.4,3.6,5.5,3.6,8.7c0,3.1-1.2,6.3-3.6,8.7
	l-55.8,55.8l-17.4-17.4l34.8-34.8H294.3c-6.8,0-12.3-5.5-12.3-12.3V268.3H53.4V256v-12.3H282V75.3c0-6.8,5.5-12.3,12.3-12.3h122.2
	l-34.8-34.8l17.4-17.4L455,66.6c2.4,2.4,3.6,5.6,3.6,8.7c0,3.2-1.2,6.3-3.6,8.7l-55.8,55.8l-17.4-17.4l34.8-34.8H306.7v156"/>
</svg>
